<?xml version="1.0" encoding="utf-8"?>
<!-- Generator: Adobe Illustrator 22.0.1, SVG Export Plug-In . SVG Version: 6.00 Build 0)  -->
<svg version="1.1" id="Layer_1" xmlns="http://www.w3.org/2000/svg" xmlns:xlink="http://www.w3.org/1999/xlink" x="0px" y="0px"
	 viewBox="0 0 368.3 340.8" style="enable-background:new 0 0 368.3 340.8;" xml:space="preserve">
<style type="text/css">
	.st0{fill:#231F20;}
	.st1{fill:none;stroke:#221F1F;stroke-width:12;stroke-miterlimit:10;}
	.st2{font-family:'Ubuntu-Regular';}
	.st3{font-size:40px;}
</style>
<g>
	<path class="st0" d="M23.4,55.2c3-0.2,5.8,0.2,8.6,1.6c5.7,2.8,8.4,9.9,5.8,15.7c-10.8,24-14.9,49.1-12.5,75.3
		c1.3,14.6,4.9,28.7,10.6,42.3c12.2,29,31.7,51.7,58.2,68.4c3.9,2.5,8,4.6,12.1,6.8c5.1,2.7,7.8,6.9,7.3,12.1
		c-0.4,5.4-4.1,10.2-9.3,11.9c-3.4,1.1-6.6,0.3-9.6-1.2c-15.1-7.6-28.7-17.1-41-28.7c-13.4-12.6-24.5-27-33.3-43.1
		c-6.8-12.4-12-25.5-15.5-39.2c-7.5-30-7.3-59.7,0.6-89.3c2.4-8.9,5.6-17.6,9.4-26c1-2.2,2.8-3.7,4.6-5.2
		C20.7,56.1,22.1,55.6,23.4,55.2z"/>
	<path class="st0" d="M58.4,177.7c-10.9-32.2-10.1-64,4-95.2c2.1-4.6,6.1-6.8,11-6.7C80.1,76,86.2,80.7,86.3,88
		c0,1.8-0.4,3.7-1.1,5.3c-8.1,18.5-10.9,37.6-7.7,57.4c4.3,26.3,17.3,47.6,38.4,64c5.5,4.3,11.5,7.8,17.8,10.9
		c5.3,2.6,7.9,8.6,6.2,14.2c-2.7,8.9-11.5,12-18,8.2c-2.2-1.3-4.6-2.3-6.8-3.6c-19.3-10.9-34.7-26-46.3-44.9
		C64.6,192.6,61.1,185.4,58.4,177.7z"/>
	<path class="st0" d="M125.9,106.6c1.7,3.1,1.8,6.3,0.7,9.7c-3.1,9.9-3.4,20-0.6,30c4.9,17.3,16,29.1,32.7,35.8
		c0.9,0.4,1.8,0.7,2.8,1c4.7,1.5,8,4.4,9,9.3c1,5.1-0.7,9.3-4.4,12.7c-3.1,2.9-6.8,3.8-11,2.5c-17.5-5.2-31.7-15.3-42-30.2
		c-14.7-21.2-17.9-44.3-10.7-68.8c1.5-5.2,5.6-8.5,10.8-8.8C117.9,99.5,123.4,101.6,125.9,106.6z"/>
	<path class="st0" d="M343.5,55.2c-3-0.2-5.8,0.2-8.6,1.6c-5.7,2.8-8.4,9.9-5.8,15.7c10.8,24,14.9,49.1,12.5,75.3
		c-1.3,14.6-4.9,28.7-10.6,42.3c-12.2,29-31.7,51.7-58.2,68.4c-3.9,2.5-8,4.6-12.1,6.8c-5.1,2.7-7.8,6.9-7.3,12.1
		c0.4,5.4,4.1,10.2,9.3,11.9c3.4,1.1,6.6,0.3,9.6-1.2c15.1-7.6,28.7-17.1,41-28.7c13.4-12.6,24.5-27,33.3-43.1
		c6.8-12.4,12-25.5,15.5-39.2c7.6-29.7,7.4-59.4-0.5-89c-2.4-8.9-5.6-17.6-9.4-26c-1-2.2-2.8-3.7-4.6-5.2
		C346.2,56.1,344.8,55.6,343.5,55.2z"/>
	<path class="st0" d="M308.5,177.7c10.9-32.2,10.1-64-4-95.2c-2.1-4.6-6.1-6.8-11-6.7c-6.7,0.2-12.8,4.9-12.9,12.2
		c0,1.8,0.4,3.7,1.1,5.3c8.1,18.4,10.8,37.5,7.6,57.3c-4.3,26.3-17.3,47.6-38.4,64c-5.5,4.3-11.5,7.8-17.8,10.9
		c-5.3,2.6-7.9,8.6-6.2,14.2c2.7,8.9,11.5,12,18,8.2c2.2-1.3,4.6-2.3,6.8-3.6c19.3-10.9,34.7-26,46.3-44.9
		C302.3,192.6,305.8,185.4,308.5,177.7z"/>
	<path class="st0" d="M241.1,106.6c-1.7,3.1-1.8,6.3-0.7,9.7c3.1,9.9,3.4,20,0.6,30c-4.9,17.3-16,29.1-32.7,35.8
		c-0.9,0.4-1.8,0.7-2.8,1c-4.7,1.5-8,4.4-9,9.3c-1,5.1,0.7,9.3,4.4,12.7c3.1,2.9,6.8,3.8,11,2.5c17.5-5.2,31.7-15.3,42-30.2
		c14.6-21.1,17.8-44.1,10.6-68.6c-1.5-5.2-5.6-8.5-10.8-8.8C249,99.5,243.5,101.6,241.1,106.6z"/>
	<path class="st0" d="M166.5,225.3c7.3,0,13.6,4.3,16.5,10.5c2.9-6.2,9.2-10.5,16.5-10.5c10.1,0,18.2,8.2,18.2,18.2
		c0,19.8-21.4,26-34.7,46.1c-14.1-20.2-34.7-25.6-34.7-46.1C148.3,233.5,156.5,225.3,166.5,225.3L166.5,225.3z"/>
	<g>
		<g>
			<path class="st1" d="M147,81.2c0-10.6,16.5-19.1,36.8-19.1"/>
			<path class="st1" d="M219,81.2c0-10.6-16.5-19.1-36.8-19.1"/>
		</g>
		<g>
			<path class="st1" d="M147,79c0,10.6,16.5,19.1,36.8,19.1"/>
			<path class="st1" d="M219,79c0,10.6-16.5,19.1-36.8,19.1"/>
		</g>
	</g>
	<path class="st0" d="M210.2,140.4c0.1,14.7-12.1,27.1-27,27.2c-14.9,0.2-27.4-12.2-27.5-27.3c0-14,11.8-26.9,27-27.2
		C196.8,112.9,210.6,125.3,210.2,140.4z"/>
</g>
<text transform="matrix(1 0 0 1 25 44)" class="st2 st3">Borrow My Angel</text>
</svg>
