<?xml version="1.0" encoding="utf-8"?>
<!-- Generator: Adobe Illustrator 22.0.1, SVG Export Plug-In . SVG Version: 6.00 Build 0)  -->
<svg version="1.1" id="Layer_1" xmlns="http://www.w3.org/2000/svg" xmlns:xlink="http://www.w3.org/1999/xlink" x="0px" y="0px"
	 viewBox="0 0 864 864" style="enable-background:new 0 0 864 864;" xml:space="preserve">
<style type="text/css">
	.st0{fill:#231F20;}
	.st1{fill:none;stroke:#221F1F;stroke-width:12;stroke-miterlimit:10;}
</style>
<path class="st0" d="M303.6,303c3-0.2,5.8,0.2,8.6,1.6c5.7,2.8,8.4,9.9,5.8,15.7c-10.8,24-14.9,49.1-12.5,75.3
	c1.3,14.6,4.9,28.7,10.6,42.3c12.2,29,31.7,51.7,58.2,68.4c3.9,2.5,8,4.6,12.1,6.8c5.1,2.7,7.8,6.9,7.3,12.1
	c-0.4,5.4-4.1,10.2-9.3,11.9c-3.4,1.1-6.6,0.3-9.6-1.2c-15.1-7.6-28.7-17.1-41-28.7c-13.4-12.6-24.5-27-33.3-43.1
	c-6.8-12.4-12-25.5-15.5-39.2c-7.6-29.7-7.4-59.4,0.5-89c2.4-8.9,5.6-17.6,9.4-26c1-2.2,2.8-3.7,4.6-5.2
	C300.9,304,302.2,303.5,303.6,303z"/>
<path class="st0" d="M338.5,425.6c-10.9-32.2-10.1-64,4-95.2c2.1-4.6,6.1-6.8,11-6.7c6.7,0.2,12.8,4.9,12.9,12.2
	c0,1.8-0.4,3.7-1.1,5.3c-8.1,18.4-10.8,37.5-7.6,57.3c4.3,26.3,17.3,47.6,38.4,64c5.5,4.3,11.5,7.8,17.8,10.9
	c5.3,2.6,7.9,8.6,6.2,14.2c-2.7,8.9-11.5,12-18,8.2c-2.2-1.3-4.6-2.3-6.8-3.6c-19.3-10.9-34.7-26-46.3-44.9
	C344.8,440.4,341.3,433.2,338.5,425.6z"/>
<path class="st0" d="M406,354.4c1.7,3.1,1.8,6.3,0.7,9.7c-3.1,9.9-3.4,20-0.6,30c4.9,17.3,16,29.1,32.7,35.8c0.9,0.4,1.8,0.7,2.8,1
	c4.7,1.5,8,4.4,9,9.3c1,5.1-0.7,9.3-4.4,12.7c-3.1,2.9-6.8,3.8-11,2.5c-17.5-5.2-31.7-15.3-42-30.2c-14.6-21.1-17.8-44.1-10.6-68.6
	c1.5-5.2,5.6-8.5,10.8-8.8C398.1,347.3,403.6,349.4,406,354.4z"/>
<path class="st0" d="M623.6,303c-3-0.2-5.8,0.2-8.6,1.6c-5.7,2.8-8.4,9.9-5.8,15.7c10.8,24,14.9,49.1,12.5,75.3
	c-1.3,14.6-4.9,28.7-10.6,42.3c-12.2,29-31.7,51.7-58.2,68.4c-3.9,2.5-8,4.6-12.1,6.8c-5.1,2.7-7.8,6.9-7.3,12.1
	c0.4,5.4,4.1,10.2,9.3,11.9c3.4,1.1,6.6,0.3,9.6-1.2c15.1-7.6,28.7-17.1,41-28.7c13.4-12.6,24.5-27,33.3-43.1
	c6.8-12.4,12-25.5,15.5-39.2c7.6-29.7,7.4-59.4-0.5-89c-2.4-8.9-5.6-17.6-9.4-26c-1-2.2-2.8-3.7-4.6-5.2
	C626.3,304,625,303.5,623.6,303z"/>
<path class="st0" d="M588.7,425.6c10.9-32.2,10.1-64-4-95.2c-2.1-4.6-6.1-6.8-11-6.7c-6.7,0.2-12.8,4.9-12.9,12.2
	c0,1.8,0.4,3.7,1.1,5.3c8.1,18.4,10.8,37.5,7.6,57.3c-4.3,26.3-17.3,47.6-38.4,64c-5.5,4.3-11.5,7.8-17.8,10.9
	c-5.3,2.6-7.9,8.6-6.2,14.2c2.7,8.9,11.5,12,18,8.2c2.2-1.3,4.6-2.3,6.8-3.6c19.3-10.9,34.7-26,46.3-44.9
	C582.4,440.4,585.9,433.2,588.7,425.6z"/>
<path class="st0" d="M521.2,354.4c-1.7,3.1-1.8,6.3-0.7,9.7c3.1,9.9,3.4,20,0.6,30c-4.9,17.3-16,29.1-32.7,35.8
	c-0.9,0.4-1.8,0.7-2.8,1c-4.7,1.5-8,4.4-9,9.3c-1,5.1,0.7,9.3,4.4,12.7c3.1,2.9,6.8,3.8,11,2.5c17.5-5.2,31.7-15.3,42-30.2
	c14.6-21.1,17.8-44.1,10.6-68.6c-1.5-5.2-5.6-8.5-10.8-8.8C529.1,347.3,523.6,349.4,521.2,354.4z"/>
<path class="st0" d="M446.7,473.2c7.3,0,13.6,4.3,16.5,10.5c2.9-6.2,9.2-10.5,16.5-10.5c10.1,0,18.2,8.2,18.2,18.2
	c0,19.8-21.4,26-34.7,46.1c-14.1-20.2-34.7-25.6-34.7-46.1C428.4,481.3,436.6,473.2,446.7,473.2L446.7,473.2z"/>
<g>
	<g>
		<path class="st1" d="M427.2,329c0-10.6,16.5-19.1,36.8-19.1"/>
		<path class="st1" d="M499.2,329.1c0-10.6-16.5-19.1-36.8-19.1"/>
	</g>
	<g>
		<path class="st1" d="M427.2,326.8c0,10.6,16.5,19.1,36.8,19.1"/>
		<path class="st1" d="M499.2,326.8c0,10.6-16.5,19.1-36.8,19.1"/>
	</g>
</g>
<path class="st0" d="M490.4,388.2c0.1,14.7-12.1,27.1-27,27.2c-14.9,0.2-27.4-12.2-27.5-27.3c0-14,11.8-26.9,27-27.2
	C477,360.8,490.8,373.2,490.4,388.2z"/>
</svg>
