<?xml version="1.0" encoding="utf-8"?>
<!-- Generator: Adobe Illustrator 22.0.1, SVG Export Plug-In . SVG Version: 6.00 Build 0)  -->
<svg version="1.1" id="Layer_1" xmlns="http://www.w3.org/2000/svg" xmlns:xlink="http://www.w3.org/1999/xlink" x="0px" y="0px"
	 viewBox="0 0 864 864" style="enable-background:new 0 0 864 864;" xml:space="preserve">
<style type="text/css">
	.st0{fill:none;stroke:#000000;stroke-width:5;stroke-miterlimit:10;}
</style>
<path class="st0" d="M432,246.7c0-32.3-25.7-60.3-63-73.4c-7.5-2.6-15.5-4.7-23.8-6.1c4.4,7.2,7.4,15,8.8,23.1
	c0.6,3.3,0.8,6.7,0.8,10.1c0,44.1-47.8,80-107.5,81.4c-0.9,0-1.8-0.1-2.7-0.1c-9.1-0.4-17.8-1.6-26.2-3.6c16.3,28.6,54.3,48.9,99,50
	c18.8-0.5,36.4-4.5,51.7-11.2l5.1,1.4l47.5,12.8l-13.7-33.7C423,283.4,432,265.8,432,246.7z"/>
<path class="st0" d="M346.2,188.1c-1.3-7.7-4.2-15.1-8.4-22c-16.5-27-53.5-45.9-96.5-45.9c-16.4,0-31.9,2.7-45.8,7.6
	c-35.4,12.5-59.9,39.1-59.9,69.8c0,18.2,8.6,35,22.9,48.2l-13,32l45.2-12.2l4.8-1.3c6.7,3,14,5.4,21.6,7.2c7.9,1.9,16.3,3,24.9,3.4
	c0.9,0,1.7,0.1,2.6,0.1c56.8-1.3,102.3-35.5,102.3-77.4C347,194.4,346.8,191.2,346.2,188.1z"/>
</svg>
