<?xml version="1.0" encoding="utf-8"?>
<!-- Generator: Adobe Illustrator 22.0.1, SVG Export Plug-In . SVG Version: 6.00 Build 0)  -->
<svg version="1.1" id="Layer_1" xmlns="http://www.w3.org/2000/svg" xmlns:xlink="http://www.w3.org/1999/xlink" x="0px" y="0px"
	 viewBox="0 0 864 864" style="enable-background:new 0 0 864 864;" xml:space="preserve">
<style type="text/css">
	.st0{fill:none;stroke:#FFFFFF;stroke-miterlimit:10;}
</style>
<g>
	<g>
		<path class="st0" d="M524.1,387.1c18.9,17.7,19.9,47.3,2.3,66.2"/>
		<path class="st0" d="M559.2,360.7c32.1,30.1,33.8,80.3,3.8,112.4"/>
		<path class="st0" d="M587.7,341.5c43.1,40.4,45.5,107.9,5.2,151"/>
	</g>
	<g>
		<path class="st0" d="M571.9,634.9l-48.5-95.4c-2.4-4.7-8.3-6.6-13.2-4.4l-44.3,20.3c-0.8,0.4-1.6,0.9-2.2,1.4c1,0,1.6-0.1,1.6-0.1
			l56.5,111.4c0.4-0.1,0.9-0.3,1.3-0.5l44.3-20.3C572.2,645.2,574.2,639.6,571.9,634.9z"/>
		<path class="st0" d="M460.9,556.9c0,0-0.6,0.1-1.6,0.1c-6.9,0.3-34.7-0.3-39.8-26.3c-0.3-1.5-0.6-3.2-0.8-5.1l-4.2-63.8l0,0
			c-0.1-1.4-0.1-2.8-0.2-4.3l-3.6-26.8c-0.5-3.1-0.9-6.1-1.4-9.2l0-0.1l0,0c-4.7-31.3-8.8-61.8-8.9-75.2
			c-0.2-28.6,26.4-34.6,33.1-35.7c1-0.2,1.5-0.2,1.5-0.2l32.3-129.2l0.1-0.2c-36.6,2.9-74.3,21.5-74.3,21.5
			c-72.7,43.2-63.8,182.6-60.9,236.2c0.1,2,0.3,4,0.5,6l-0.1,0c0.2,5.1,0.7,10.1,1.3,14.8c7.1,49.2,24.2,177.5,105.1,203.3
			c0,0,41.3,9.9,78.6,5.8l-0.1-0.2L460.9,556.9z"/>
		<path class="st0" d="M438.6,311c0.7,0.5,1.6,0.8,2.4,1.1l46.6,12.8c5.1,1.4,10.4-1.8,11.8-7.2l27.8-110.6c1.4-5.4-1.7-11-6.8-12.4
			l-46.6-12.8c-0.5-0.1-0.9-0.2-1.4-0.3l-32.3,129.2C440.1,310.8,439.5,310.8,438.6,311z"/>
	</g>
</g>
</svg>
